<svg xmlns="http://www.w3.org/2000/svg" viewBox="0 0 170 130" role="img" aria-labelledby="title">
  <title id="title">SnatchIMG icon</title>
  <defs>
    <filter id="shadow" x="-20%" y="-20%" width="140%" height="150%">
      <feDropShadow dx="0" dy="7" stdDeviation="3" flood-color="#0a0e17" flood-opacity="0.18"/>
    </filter>
  </defs>

  <g filter="url(#shadow)">
    <rect x="12" y="12" width="128" height="94" rx="8" fill="#0a0e17"/>
    <rect x="21" y="43" width="110" height="54" rx="2" fill="#fff"/>
    <circle cx="29" cy="26" r="5.4" fill="#fff"/>
    <circle cx="45" cy="26" r="5.4" fill="#fff"/>
    <circle cx="61" cy="26" r="5.4" fill="#fff"/>

    <path d="M29 89 67 40l29 39 18-23 25 33H29Z" fill="#2468ff"/>
    <circle cx="114" cy="42" r="12" fill="#2468ff"/>
  </g>

  <g>
    <path d="M130 66v42" fill="none" stroke="#fff" stroke-width="22" stroke-linecap="round"/>
    <path d="M112 90 130 108 148 90" fill="none" stroke="#fff" stroke-width="22" stroke-linecap="round" stroke-linejoin="round"/>
    <path d="M102 106v17h57v-17" fill="none" stroke="#fff" stroke-width="22" stroke-linecap="round" stroke-linejoin="round"/>

    <path d="M130 66v42" fill="none" stroke="#2468ff" stroke-width="12" stroke-linecap="round"/>
    <path d="M112 90 130 108 148 90" fill="none" stroke="#2468ff" stroke-width="12" stroke-linecap="round" stroke-linejoin="round"/>
    <path d="M102 106v17h57v-17" fill="none" stroke="#2468ff" stroke-width="12" stroke-linecap="round" stroke-linejoin="round"/>
  </g>
</svg>
